#!OML:ASF \\Waltz\H\Terrain\Patient Classification 1\Animal2\Wednesday\Animal2.ASF
:FULLY-SPECIFIED
:DEGREES
2843
root 11.6761 18.6879 -11.2534 7.01354 40.696 0.326104
lowerback 2.36121 0.307134 6.27018
upperback -5.88382 1.10989 3.50726
thorax -7.47212 0.333821 0.0777736
lowerneck 14.851 18.1834 18.1069
upperneck -14.9935 25.6347 -25.6372
head -0.872771 13.9218 -10.7997
rclavicle 6.13251e-014 2.8625e-014
rhumerus -41.4036 -35.0304 -19.6375
rradius 63.3935
rwrist 18.2217
rhand 3.12901 19.8639
rfingers 7.12502
rthumb 28.5838 -7.97069
lclavicle 6.13251e-014 2.8625e-014
lhumerus -58.8501 22.6328 19.3631
lradius 58.4589
lwrist 4.09493
lhand 33.1869 44.6485
lfingers 7.12502
lthumb 56.5471 -298.394
rfemur -4.82304 7.35898 15.8881
rtibia 33.5705
rfoot -2.25899 0.674594
rtoes 33.271
lfemur -16.7458 -7.86911 -11.2877
ltibia 12.6309
lfoot -0.633435 -3.11852
ltoes -36.5144
2844
root 11.5325 18.6619 -11.3464 7.09475 41.1056 0.380585
lowerback 2.21095 0.278759 6.13522
upperback -5.56985 1.04605 3.79656
thorax -7.05517 0.332786 0.458519
lowerneck 14.9014 18.3793 17.758
upperneck -15.5943 25.7665 -25.9667
head -1.01724 14.041 -10.8894
rclavicle 2.50469e-014 3.18055e-014
rhumerus -40.4819 -35.4016 -20.1945
rradius 63.2596
rwrist 18.076
rhand 0.857912 19.5065
rfingers 7.12502
rthumb 26.4118 -8.67358
lclavicle 2.50469e-014 3.18055e-014
lhumerus -58.3871 22.5534 19.1219
lradius 58.9103
lwrist 5.19084
lhand 29.7185 42.4726
lfingers 7.12502
lthumb 53.4537 -298.327
rfemur -4.43621 7.40936 16.2894
rtibia 32.8516
rfoot -0.997349 0.130882
rtoes 31.862
lfemur -17.4945 -7.46936 -10.936
ltibia 13.3829
lfoot -1.70687 -2.65647
ltoes -35.2257
2845
root 11.3937 18.6408 -11.4398 7.51697 41.5045 0.653574
lowerback 2.03361 0.250855 5.94102
upperback -5.43155 0.98072 3.94018
thorax -6.80955 0.322574 0.720697
lowerneck 14.8533 18.5415 17.5066
upperneck -15.967 25.8912 -26.0555
head -1.10932 14.1246 -10.8928
rclavicle 1.29111e-013 -1.90833e-014
rhumerus -39.7118 -35.35 -20.8887
rradius 63.1342
rwrist 17.8822
rhand -1.57283 19.023
rfingers 7.12502
rthumb 24.083 -9.48571
lclavicle 1.29111e-013 -1.90833e-014
lhumerus -57.865 22.3783 18.729
lradius 59.2804
lwrist 6.21902
lhand 25.7012 40.1393
lfingers 7.12502
lthumb 49.8041 -298.536
rfemur -4.38543 7.44002 16.368
rtibia 32.0128
rfoot 0.306444 0.0127109
rtoes 30.3556
lfemur -18.3818 -7.17523 -10.694
ltibia 14.0322
lfoot -2.82847 -2.40319
ltoes -31.9583
2846
root 11.2496 18.6048 -11.5322 7.88879 41.9118 1.02104
lowerback 2.22893 0.181514 5.82348
upperback -5.4944 0.898209 3.8619
thorax -6.99187 0.2812 0.710925
lowerneck 15.173 18.628 17.6756
upperneck -16.2423 26.0566 -26.0053
head -1.18979 14.2094 -10.9348
rclavicle -3.75703e-014 -1.11319e-014
rhumerus -39.4905 -34.8552 -21.7297
rradius 63.2269
rwrist 17.5264
rhand -4.12365 18.2514
rfingers 7.12502
rthumb 21.6352 -10.5599
lclavicle -3.75703e-014 -1.11319e-014
lhumerus -57.3298 21.8667 17.9841
lradius 59.6926
lwrist 7.27438
lhand 21.1906 37.8183
lfingers 7.12502
lthumb 45.6426 -298.94
rfemur -4.25461 7.70521 16.4415
rtibia 31.1911
rfoot 0.303875 -0.488968
rtoes 28.7898
lfemur -18.9969 -7.2136 -10.4122
ltibia 14.3947
lfoot -3.79784 -2.03362
ltoes -30.4067
2847
root 11.0987 18.5483 -11.6258 8.27659 42.2667 1.60144
lowerback 2.57356 0.116182 5.4183
upperback -5.48194 0.808937 3.7963
thorax -7.18101 0.252716 0.874288
lowerneck 15.2352 18.7348 17.8065
upperneck -16.2708 26.2385 -25.9778
head -1.15651 14.2936 -10.9216
rclavicle -2.45499e-014 -3.18055e-014
rhumerus -39.2997 -34.5489 -22.3807
rradius 63.3141
rwrist 17.5336
rhand -6.35383 17.5401
rfingers 7.12502
rthumb 19.4922 -11.5028
lclavicle -2.45499e-014 -3.18055e-014
lhumerus -56.7701 21.4732 17.242
lradius 59.9731
lwrist 7.83978
lhand 17.8277 35.5126
lfingers 7.12502
lthumb 42.5063 -300.069
rfemur -3.97158 7.95153 16.4241
rtibia 30.4657
rfoot -1.60462 -1.55305
rtoes 25.4472
lfemur -19.2445 -7.63944 -10.1627
ltibia 14.4817
lfoot -4.58158 -1.38097
ltoes -30.0189
2848
root 10.9437 18.4884 -11.715 8.39663 42.618 1.94668
lowerback 3.00712 0.0487797 5.02815
upperback -5.33521 0.723991 3.89548
thorax -7.28 0.234257 1.20156
lowerneck 15.0093 18.8684 17.5835
upperneck -16.3271 26.3411 -26.0885
head -1.1273 14.3576 -10.8882
rclavicle 2.43511e-014 3.18055e-014
rhumerus -38.9398 -34.5534 -22.8498
rradius 63.3832
rwrist 18.2932
rhand -8.53104 16.8645
rfingers 7.12502
rthumb 17.3978 -12.3769
lclavicle 2.43511e-014 3.18055e-014
lhumerus -56.251 21.2077 16.6278
lradius 60.1996
lwrist 8.07794
lhand 14.3977 33.11
lfingers 7.12502
lthumb 39.2844 -301.452
rfemur -3.60491 8.22777 16.6183
rtibia 29.8887
rfoot -4.00324 -2.95831
rtoes 23.4413
lfemur -19.2028 -7.97588 -9.68939
ltibia 14.3702
lfoot -5.27936 -1.14148
ltoes -27.3974
2849
root 10.7903 18.4274 -11.801 8.27309 43.046 1.99378
lowerback 3.4756 -0.0277172 5.01784
upperback -5.20382 0.651 3.93433
thorax -7.41351 0.198373 1.25456
lowerneck 15.1164 18.8563 17.4847
upperneck -16.6962 26.2652 -26.3593
head -1.23337 14.3595 -11.0099
rclavicle -6.76862e-014 -5.24792e-014
rhumerus -38.8164 -34.517 -23.3618
rradius 63.5783
rwrist 19.0171
rhand -10.6544 16.4546
rfingers 7.12502
rthumb 15.3534 -12.9554
lclavicle -6.76862e-014 -5.24792e-014
lhumerus -55.6453 20.7924 16.1272
lradius 60.4934
lwrist 8.7149
lhand 9.16329 31.0244
lfingers 7.12502
lthumb 34.3323 -302.266
rfemur -3.29477 8.58683 16.995
rtibia 29.4753
rfoot -5.85935 -3.94889
rtoes 22.8228
lfemur -19.0796 -8.15876 -8.99912
ltibia 14.1313
lfoot -5.67523 -1.1835
ltoes -25.6238
2850
root 10.6399 18.3595 -11.8889 8.35272 43.426 2.34242
lowerback 3.9287 -0.0625145 4.90783
upperback -5.1309 0.614674 3.79522
thorax -7.59746 0.178262 1.17367
lowerneck 15.1885 18.7271 17.5862
upperneck -16.7343 26.1084 -26.3882
head -1.26974 14.2846 -11.0655
rclavicle -8.79622e-015 -3.65764e-014
rhumerus -38.9754 -34.0562 -23.9735
rradius 63.8926
rwrist 18.4933
rhand -12.5886 16.6474
rfingers 7.12502
rthumb 13.4897 -12.8957
lclavicle -8.79622e-015 -3.65764e-014
lhumerus -54.8968 20.3194 15.7338
lradius 60.6829
lwrist 9.53144
lhand 2.96462 29.2476
lfingers 7.12502
lthumb 28.4267 -302.892
rfemur -3.1022 8.75213 17.0212
rtibia 29.1715
rfoot -7.45725 -4.51032
rtoes 19.1512
lfemur -18.976 -8.62332 -8.49859
ltibia 13.9738
lfoot -5.99006 -0.800939
ltoes -26.4584
2851
root 10.4879 18.2851 -11.9769 8.66592 43.7045 3.12992
lowerback 4.44772 -0.0502117 4.2998
upperback -5.00795 0.598399 3.64679
thorax -7.76618 0.195563 1.35825
lowerneck 15.1026 18.6124 17.5558
upperneck -16.6918 25.9356 -26.4077
head -1.28117 14.2003 -11.0801
rclavicle 3.03147e-015 1.74931e-014
rhumerus -39.3019 -34.4535 -23.9339
rradius 64.071
rwrist 19.5928
rhand -11.4444 16.5712
rfingers 7.12502
rthumb 14.5923 -12.8955
lclavicle 3.03147e-015 1.74931e-014
lhumerus -54.2229 20.1081 15.4527
lradius 60.8878
lwrist 9.9892
lhand -3.18383 27.6588
lfingers 7.12502
lthumb 22.5375 -303.637
rfemur -3.00278 8.71366 16.6189
rtibia 28.9976
rfoot -9.05468 -4.84554
rtoes 14.5168
lfemur -18.7626 -9.2551 -8.29751
ltibia 13.9167
lfoot -6.41332 -0.249495
ltoes -26.5381
2852
root 10.336 18.2088 -12.0609 8.60595 44.0206 3.50144
lowerback 5.12294 -0.0343318 3.95655
upperback -4.88735 0.624012 3.61041
thorax -8.03126 0.222627 1.51011
lowerneck 15.5606 18.4795 17.3289
upperneck -17.3724 25.6714 -26.6927
head -1.58837 14.1366 -11.2993
rclavicle -3.68746e-014 -1.11319e-014
rhumerus -39.447 -35.1448 -23.8823
rradius 64.2094
rwrist 20.6376
rhand -10.43 16.5094
rfingers 7.12502
rthumb 15.5695 -12.8839
lclavicle -3.68746e-014 -1.11319e-014
lhumerus -53.6467 19.999 15.2745
lradius 61.2602
lwrist 10.2571
lhand -9.50759 26.7664
lfingers 7.12502
lthumb 16.4578 -303.912
rfemur -3.00915 8.36224 16.4754
rtibia 29.0462
rfoot -10.5239 -4.93423
rtoes 9.742
lfemur -18.3819 -9.73423 -7.77273
ltibia 13.8265
lfoot -6.72793 -0.0220744
ltoes -24.5008
2853
root 10.1846 18.1321 -12.1435 8.20385 44.3863 3.43518
lowerback 5.91362 -0.0530205 4.00124
upperback -4.84825 0.651758 3.59583
thorax -8.45299 0.228422 1.47018
lowerneck 16.116 18.3628 17.0531
upperneck -17.9396 25.4516 -26.7054
head -1.92277 14.0734 -11.4366
rclavicle 2.10712e-014 1.90833e-014
rhumerus -39.6382 -35.1669 -23.9938
rradius 64.4452
rwrist 20.6656
rhand -9.45515 16.6471
rfingers 7.12502
rthumb 16.5083 -12.6706
lclavicle 2.10712e-014 1.90833e-014
lhumerus -53.1458 19.7945 15.078
lradius 61.6439
lwrist 10.4302
lhand -15.9802 26.2321
lfingers 7.12502
lthumb 10.2193 -304.036
rfemur -3.13341 7.95206 16.6515
rtibia 29.3718
rfoot -12.0795 -4.85611
rtoes 8.6185
lfemur -17.9405 -10.0582 -6.97024
ltibia 13.7802
lfoot -7.02448 0.129996
ltoes -24.5319
2854
root 10.0311 18.0525 -12.2327 8.18797 44.6523 3.70348
lowerback 6.60817 -0.0677532 3.72405
upperback -4.84012 0.640279 3.51967
thorax -8.85322 0.231951 1.55036
lowerneck 16.1917 18.3211 16.8616
upperneck -17.9035 25.3718 -26.5236
head -1.99807 14.03 -11.3865
rclavicle 1.81739e-013 2.70347e-014
rhumerus -39.6968 -34.4265 -24.5102
rradius 64.8239
rwrist 19.5661
rhand -9.19613 16.2271
rfingers 7.12502
rthumb 16.7576 -13.0697
lclavicle 1.81739e-013 2.70347e-014
lhumerus -52.7985 19.8433 14.8327
lradius 61.9745
lwrist 10.4992
lhand -21.8592 25.8
lfingers 7.12502
lthumb 4.5447 -304.269
rfemur -3.6756 7.86146 16.5253
rtibia 30.0201
rfoot -13.5462 -4.39634
rtoes 10.6031
lfemur -17.6233 -10.18 -6.50275
ltibia 13.7825
lfoot -7.23915 0.489124
ltoes -28.3244
2855
root 9.87996 17.978 -12.3214 8.19848 44.8083 3.84867
lowerback 7.22325 -0.115725 3.4875
upperback -4.85935 0.583457 3.47152
thorax -9.23804 0.213333 1.6451
lowerneck 16.0522 18.3935 16.6469
upperneck -17.6253 25.4502 -26.2517
head -1.95346 14.0458 -11.2345
rclavicle -3.27995e-014 -2.22639e-014
rhumerus -39.996 -34.3946 -24.5526
rradius 65.1584
rwrist 20.6587
rhand -6.03187 16.4823
rfingers 7.12502
rthumb 19.8017 -12.529
lclavicle -3.27995e-014 -2.22639e-014
lhumerus -52.7468 20.096 14.3249
lradius 62.3614
lwrist 10.6763
lhand -26.8824 26.0966
lfingers 7.12502
lthumb -0.306522 -303.924
rfemur -4.61098 7.68972 16.4138
rtibia 30.9713
rfoot -14.8954 -3.75133
rtoes 9.69443
lfemur -17.3245 -10.1785 -5.92882
ltibia 13.7446
lfoot -7.13421 0.822967
ltoes -31.2423
2856
root 9.7353 17.9182 -12.3977 8.04853 44.8992 3.80234
lowerback 7.8054 -0.18932 3.34987
upperback -4.92896 0.500082 3.40774
thorax -9.65933 0.175692 1.67413
lowerneck 16.0576 18.4227 16.5923
upperneck -17.4165 25.5122 -25.9687
head -1.93541 14.0493 -11.124
rclavicle 1.56543e-014 -1.43125e-014
rhumerus -40.2748 -34.1781 -24.8194
rradius 65.6561
rwrist 21.0891
rhand -2.34408 16.7321
rfingers 7.12502
rthumb 23.3433 -11.8724
lclavicle 1.56543e-014 -1.43125e-014
lhumerus -52.9039 20.3796 13.5244
lradius 62.8522
lwrist 10.7847
lhand -31.7437 27.694
lfingers 7.12502
lthumb -5.00127 -302.385
rfemur -5.62327 7.1852 16.428
rtibia 32.0772
rfoot -16.133 -3.27267
rtoes 8.18624
lfemur -16.8952 -10.2991 -5.19083
ltibia 13.7745
lfoot -6.95045 1.21213
ltoes -31.4082
